<mxfile host="app.diagrams.net" modified="2023-04-26T16:28:42.387Z" agent="Mozilla/5.0 (Windows NT 10.0; Win64; x64) AppleWebKit/537.36 (KHTML, like Gecko) Chrome/112.0.0.0 Safari/537.36" etag="tEPQQucwX9XjYHZzRfB4" version="21.1.5" type="device">
  <diagram name="Trang-1" id="RtbaF_OZLal93d4lF7s_">
    <mxGraphModel dx="1500" dy="830" grid="1" gridSize="10" guides="1" tooltips="1" connect="1" arrows="1" fold="1" page="1" pageScale="1" pageWidth="827" pageHeight="1169" math="0" shadow="0">
      <root>
        <mxCell id="0" />
        <mxCell id="1" parent="0" />
        <mxCell id="rtZ6Cj8IN6wZWN9fhZ0d-69" value="" style="rounded=1;whiteSpace=wrap;html=1;shadow=0;" vertex="1" parent="1">
          <mxGeometry x="40" y="760" width="1200" height="540" as="geometry" />
        </mxCell>
        <mxCell id="rtZ6Cj8IN6wZWN9fhZ0d-148" value="" style="rounded=1;whiteSpace=wrap;html=1;fillColor=#b0e3e6;strokeColor=#0e8088;" vertex="1" parent="1">
          <mxGeometry x="877.5" y="923.74" width="312.5" height="241" as="geometry" />
        </mxCell>
        <mxCell id="rtZ6Cj8IN6wZWN9fhZ0d-136" value="" style="rounded=1;whiteSpace=wrap;html=1;fillColor=#cce5ff;strokeColor=#36393d;fillStyle=auto;" vertex="1" parent="1">
          <mxGeometry x="897.52" y="1066.49" width="272.46" height="81" as="geometry" />
        </mxCell>
        <mxCell id="rtZ6Cj8IN6wZWN9fhZ0d-126" value="" style="rounded=1;whiteSpace=wrap;html=1;" vertex="1" parent="1">
          <mxGeometry x="45" y="1360" width="1040" height="480" as="geometry" />
        </mxCell>
        <mxCell id="rtZ6Cj8IN6wZWN9fhZ0d-94" value="" style="rounded=1;whiteSpace=wrap;html=1;fillColor=#cce5ff;strokeColor=#36393d;" vertex="1" parent="1">
          <mxGeometry x="245" y="1400" width="639.18" height="400" as="geometry" />
        </mxCell>
        <mxCell id="rtZ6Cj8IN6wZWN9fhZ0d-39" value="" style="rounded=1;whiteSpace=wrap;html=1;shadow=0;strokeColor=default;fillStyle=auto;" vertex="1" parent="1">
          <mxGeometry x="40" y="40" width="1080" height="680" as="geometry" />
        </mxCell>
        <mxCell id="rtZ6Cj8IN6wZWN9fhZ0d-1" value="" style="ellipse;whiteSpace=wrap;html=1;aspect=fixed;fillColor=#fff2cc;strokeColor=#d6b656;shadow=0;" vertex="1" parent="1">
          <mxGeometry x="160" y="60" width="600" height="600" as="geometry" />
        </mxCell>
        <mxCell id="rtZ6Cj8IN6wZWN9fhZ0d-2" value="" style="ellipse;whiteSpace=wrap;html=1;aspect=fixed;fillColor=#dae8fc;strokeColor=#6c8ebf;" vertex="1" parent="1">
          <mxGeometry x="200" y="100" width="520" height="520" as="geometry" />
        </mxCell>
        <mxCell id="rtZ6Cj8IN6wZWN9fhZ0d-3" value="" style="ellipse;whiteSpace=wrap;html=1;aspect=fixed;fillColor=#d5e8d4;strokeColor=#82b366;" vertex="1" parent="1">
          <mxGeometry x="240" y="140" width="440" height="440" as="geometry" />
        </mxCell>
        <mxCell id="rtZ6Cj8IN6wZWN9fhZ0d-4" value="" style="ellipse;whiteSpace=wrap;html=1;aspect=fixed;fillColor=#b1ddf0;strokeColor=#10739e;" vertex="1" parent="1">
          <mxGeometry x="280" y="270" width="100" height="100" as="geometry" />
        </mxCell>
        <mxCell id="rtZ6Cj8IN6wZWN9fhZ0d-5" value="Business logic implementation" style="text;html=1;strokeColor=none;fillColor=none;align=center;verticalAlign=middle;whiteSpace=wrap;rounded=0;" vertex="1" parent="1">
          <mxGeometry x="300" y="305" width="60" height="30" as="geometry" />
        </mxCell>
        <mxCell id="rtZ6Cj8IN6wZWN9fhZ0d-6" value="" style="ellipse;whiteSpace=wrap;html=1;aspect=fixed;fillColor=#ffcc99;strokeColor=#36393d;" vertex="1" parent="1">
          <mxGeometry x="410" y="430" width="100" height="100" as="geometry" />
        </mxCell>
        <mxCell id="rtZ6Cj8IN6wZWN9fhZ0d-7" value="Other dependencies" style="text;html=1;strokeColor=none;fillColor=none;align=center;verticalAlign=middle;whiteSpace=wrap;rounded=0;" vertex="1" parent="1">
          <mxGeometry x="430" y="465" width="60" height="30" as="geometry" />
        </mxCell>
        <mxCell id="rtZ6Cj8IN6wZWN9fhZ0d-8" value="" style="ellipse;whiteSpace=wrap;html=1;aspect=fixed;fillColor=#f8cecc;strokeColor=#b85450;" vertex="1" parent="1">
          <mxGeometry x="540" y="270" width="100" height="100" as="geometry" />
        </mxCell>
        <mxCell id="rtZ6Cj8IN6wZWN9fhZ0d-9" value="Store implementation" style="text;html=1;strokeColor=none;fillColor=none;align=center;verticalAlign=middle;whiteSpace=wrap;rounded=0;" vertex="1" parent="1">
          <mxGeometry x="560" y="305" width="60" height="30" as="geometry" />
        </mxCell>
        <mxCell id="rtZ6Cj8IN6wZWN9fhZ0d-11" value="" style="endArrow=classic;startArrow=classic;html=1;rounded=0;exitX=1;exitY=0.5;exitDx=0;exitDy=0;exitPerimeter=0;entryX=0;entryY=0.5;entryDx=0;entryDy=0;" edge="1" parent="1" source="rtZ6Cj8IN6wZWN9fhZ0d-4" target="rtZ6Cj8IN6wZWN9fhZ0d-8">
          <mxGeometry width="50" height="50" relative="1" as="geometry">
            <mxPoint x="396" y="305" as="sourcePoint" />
            <mxPoint x="495" y="304" as="targetPoint" />
          </mxGeometry>
        </mxCell>
        <mxCell id="rtZ6Cj8IN6wZWN9fhZ0d-12" value="&lt;b&gt;I/O Handler (Delivery)&lt;/b&gt;" style="text;html=1;strokeColor=none;fillColor=none;align=center;verticalAlign=middle;whiteSpace=wrap;rounded=0;" vertex="1" parent="1">
          <mxGeometry x="380" y="70" width="160" height="30" as="geometry" />
        </mxCell>
        <mxCell id="rtZ6Cj8IN6wZWN9fhZ0d-13" value="&lt;b&gt;Domain (Model)&lt;/b&gt;" style="text;html=1;strokeColor=none;fillColor=none;align=center;verticalAlign=middle;whiteSpace=wrap;rounded=0;" vertex="1" parent="1">
          <mxGeometry x="410" y="160" width="100" height="30" as="geometry" />
        </mxCell>
        <mxCell id="rtZ6Cj8IN6wZWN9fhZ0d-14" value="&lt;b&gt;API (Usecase)&lt;/b&gt;" style="text;html=1;strokeColor=none;fillColor=none;align=center;verticalAlign=middle;whiteSpace=wrap;rounded=0;" vertex="1" parent="1">
          <mxGeometry x="415" y="110" width="90" height="30" as="geometry" />
        </mxCell>
        <mxCell id="rtZ6Cj8IN6wZWN9fhZ0d-15" value="" style="shape=flexArrow;endArrow=classic;html=1;rounded=0;exitX=0.093;exitY=0.206;exitDx=0;exitDy=0;exitPerimeter=0;fillColor=#b0e3e6;strokeColor=#0e8088;" edge="1" parent="1" source="rtZ6Cj8IN6wZWN9fhZ0d-1" target="rtZ6Cj8IN6wZWN9fhZ0d-3">
          <mxGeometry width="50" height="50" relative="1" as="geometry">
            <mxPoint x="230" y="200" as="sourcePoint" />
            <mxPoint x="260" y="130" as="targetPoint" />
          </mxGeometry>
        </mxCell>
        <mxCell id="rtZ6Cj8IN6wZWN9fhZ0d-18" value="Dependency flow is from inner circle to outer circle. Outer packages import inner ones" style="rounded=1;whiteSpace=wrap;html=1;dashed=1;" vertex="1" parent="1">
          <mxGeometry x="50" y="120" width="170" height="70" as="geometry" />
        </mxCell>
        <mxCell id="rtZ6Cj8IN6wZWN9fhZ0d-19" value="&lt;font style=&quot;font-size: 10px;&quot;&gt;Connected via interfaces&lt;/font&gt;" style="text;html=1;strokeColor=none;fillColor=default;align=center;verticalAlign=middle;whiteSpace=wrap;rounded=1;perimeterSpacing=0;fillStyle=auto;" vertex="1" parent="1">
          <mxGeometry x="401.25" y="300" width="117.5" height="15" as="geometry" />
        </mxCell>
        <mxCell id="rtZ6Cj8IN6wZWN9fhZ0d-21" value="" style="endArrow=classic;startArrow=classic;html=1;rounded=0;exitX=0.5;exitY=1;exitDx=0;exitDy=0;entryX=0;entryY=0;entryDx=0;entryDy=0;" edge="1" parent="1" source="rtZ6Cj8IN6wZWN9fhZ0d-4" target="rtZ6Cj8IN6wZWN9fhZ0d-6">
          <mxGeometry width="50" height="50" relative="1" as="geometry">
            <mxPoint x="410" y="400" as="sourcePoint" />
            <mxPoint x="410" y="500" as="targetPoint" />
          </mxGeometry>
        </mxCell>
        <mxCell id="rtZ6Cj8IN6wZWN9fhZ0d-23" value="&lt;font style=&quot;font-size: 10px;&quot;&gt;Connected via interfaces&lt;/font&gt;" style="text;html=1;strokeColor=none;fillColor=default;align=center;verticalAlign=middle;whiteSpace=wrap;rounded=1;perimeterSpacing=0;fillStyle=auto;rotation=37.8;" vertex="1" parent="1">
          <mxGeometry x="300" y="414.82" width="120" height="15.18" as="geometry" />
        </mxCell>
        <mxCell id="rtZ6Cj8IN6wZWN9fhZ0d-27" value="" style="ellipse;whiteSpace=wrap;html=1;aspect=fixed;fillColor=#b1ddf0;strokeColor=#10739e;" vertex="1" parent="1">
          <mxGeometry x="800" y="200" width="80" height="80" as="geometry" />
        </mxCell>
        <mxCell id="rtZ6Cj8IN6wZWN9fhZ0d-28" value="Business logic" style="text;html=1;strokeColor=none;fillColor=none;align=center;verticalAlign=middle;whiteSpace=wrap;rounded=0;" vertex="1" parent="1">
          <mxGeometry x="810" y="225" width="60" height="30" as="geometry" />
        </mxCell>
        <mxCell id="rtZ6Cj8IN6wZWN9fhZ0d-29" value="This is where we should pay maximum attention. All our efforts would go here, to make it as independent, statable, robust as possible" style="rounded=1;whiteSpace=wrap;html=1;dashed=1;" vertex="1" parent="1">
          <mxGeometry x="890" y="200" width="190" height="80" as="geometry" />
        </mxCell>
        <mxCell id="rtZ6Cj8IN6wZWN9fhZ0d-30" value="" style="ellipse;whiteSpace=wrap;html=1;aspect=fixed;fillColor=#fad9d5;strokeColor=#ae4132;" vertex="1" parent="1">
          <mxGeometry x="800" y="360" width="80" height="80" as="geometry" />
        </mxCell>
        <mxCell id="rtZ6Cj8IN6wZWN9fhZ0d-31" value="Implement detail" style="text;html=1;strokeColor=none;fillColor=none;align=center;verticalAlign=middle;whiteSpace=wrap;rounded=0;" vertex="1" parent="1">
          <mxGeometry x="810" y="385" width="60" height="30" as="geometry" />
        </mxCell>
        <mxCell id="rtZ6Cj8IN6wZWN9fhZ0d-32" value="They are replaceble components, and business layer is oblivious to the underlying techonology" style="rounded=1;whiteSpace=wrap;html=1;dashed=1;" vertex="1" parent="1">
          <mxGeometry x="900" y="360" width="180" height="80" as="geometry" />
        </mxCell>
        <mxCell id="rtZ6Cj8IN6wZWN9fhZ0d-33" value="" style="rounded=1;whiteSpace=wrap;html=1;fillColor=#cce5ff;strokeColor=#36393d;fillStyle=auto;" vertex="1" parent="1">
          <mxGeometry x="80" y="925.89" width="160" height="295.5" as="geometry" />
        </mxCell>
        <mxCell id="rtZ6Cj8IN6wZWN9fhZ0d-34" value="*CHAT ROOM" style="rounded=1;whiteSpace=wrap;html=1;fillColor=#fad9d5;strokeColor=#ae4132;" vertex="1" parent="1">
          <mxGeometry x="100" y="956.8199999999999" width="120" height="44.57" as="geometry" />
        </mxCell>
        <mxCell id="rtZ6Cj8IN6wZWN9fhZ0d-35" value="Register" style="rounded=1;whiteSpace=wrap;html=1;fillColor=#fad7ac;strokeColor=#b46504;" vertex="1" parent="1">
          <mxGeometry x="100" y="1045.89" width="120" height="40" as="geometry" />
        </mxCell>
        <mxCell id="rtZ6Cj8IN6wZWN9fhZ0d-36" value="Broadcast" style="rounded=1;whiteSpace=wrap;html=1;fillColor=#fad7ac;strokeColor=#b46504;" vertex="1" parent="1">
          <mxGeometry x="100" y="1166.39" width="120" height="40" as="geometry" />
        </mxCell>
        <mxCell id="rtZ6Cj8IN6wZWN9fhZ0d-37" value="Unregister" style="rounded=1;whiteSpace=wrap;html=1;fillColor=#fad7ac;strokeColor=#b46504;" vertex="1" parent="1">
          <mxGeometry x="100" y="1105.89" width="120" height="40" as="geometry" />
        </mxCell>
        <mxCell id="rtZ6Cj8IN6wZWN9fhZ0d-38" value="&lt;b&gt;Hub&lt;/b&gt;" style="text;html=1;align=center;verticalAlign=middle;whiteSpace=wrap;rounded=0;" vertex="1" parent="1">
          <mxGeometry x="130" y="925.89" width="60" height="30" as="geometry" />
        </mxCell>
        <mxCell id="rtZ6Cj8IN6wZWN9fhZ0d-40" value="" style="rounded=1;whiteSpace=wrap;html=1;fillColor=#cce5ff;strokeColor=#36393d;fillStyle=auto;" vertex="1" parent="1">
          <mxGeometry x="281.25" y="925.89" width="200" height="155.5" as="geometry" />
        </mxCell>
        <mxCell id="rtZ6Cj8IN6wZWN9fhZ0d-41" value="*Client" style="rounded=1;whiteSpace=wrap;html=1;fillColor=#fad9d5;strokeColor=#ae4132;" vertex="1" parent="1">
          <mxGeometry x="320" y="965.89" width="120" height="80" as="geometry" />
        </mxCell>
        <mxCell id="rtZ6Cj8IN6wZWN9fhZ0d-45" value="&lt;b&gt;Room&lt;/b&gt;" style="text;html=1;align=center;verticalAlign=middle;whiteSpace=wrap;rounded=0;" vertex="1" parent="1">
          <mxGeometry x="351.25" y="925.89" width="60" height="30" as="geometry" />
        </mxCell>
        <mxCell id="rtZ6Cj8IN6wZWN9fhZ0d-46" value="" style="rounded=1;whiteSpace=wrap;html=1;fillColor=#cce5ff;strokeColor=#36393d;fillStyle=auto;" vertex="1" parent="1">
          <mxGeometry x="520" y="923.74" width="320" height="195.5" as="geometry" />
        </mxCell>
        <mxCell id="rtZ6Cj8IN6wZWN9fhZ0d-47" value="Websocket Connection" style="rounded=1;whiteSpace=wrap;html=1;fillColor=#fad9d5;strokeColor=#ae4132;rotation=0;" vertex="1" parent="1">
          <mxGeometry x="550" y="963.74" width="250" height="45" as="geometry" />
        </mxCell>
        <mxCell id="rtZ6Cj8IN6wZWN9fhZ0d-48" value="writeMessage" style="rounded=1;whiteSpace=wrap;html=1;fillColor=#fad7ac;strokeColor=#b46504;" vertex="1" parent="1">
          <mxGeometry x="684.5" y="1043.74" width="115.5" height="40" as="geometry" />
        </mxCell>
        <mxCell id="rtZ6Cj8IN6wZWN9fhZ0d-49" value="readMessage" style="rounded=1;whiteSpace=wrap;html=1;fillColor=#fad7ac;strokeColor=#b46504;" vertex="1" parent="1">
          <mxGeometry x="550" y="1043.74" width="125" height="40" as="geometry" />
        </mxCell>
        <mxCell id="rtZ6Cj8IN6wZWN9fhZ0d-51" value="&lt;b&gt;Client 2&lt;/b&gt;" style="text;html=1;align=center;verticalAlign=middle;whiteSpace=wrap;rounded=0;" vertex="1" parent="1">
          <mxGeometry x="650" y="923.74" width="60" height="30" as="geometry" />
        </mxCell>
        <mxCell id="rtZ6Cj8IN6wZWN9fhZ0d-53" value="" style="endArrow=classic;html=1;rounded=0;edgeStyle=orthogonalEdgeStyle;fillColor=#e6d0de;strokeColor=#996185;gradientColor=#d5739d;" edge="1" parent="1">
          <mxGeometry width="50" height="50" relative="1" as="geometry">
            <mxPoint x="220" y="1194" as="sourcePoint" />
            <mxPoint x="743" y="1089.74" as="targetPoint" />
            <Array as="points">
              <mxPoint x="743" y="1194" />
            </Array>
          </mxGeometry>
        </mxCell>
        <mxCell id="rtZ6Cj8IN6wZWN9fhZ0d-54" value="" style="endArrow=classic;html=1;rounded=0;exitX=1;exitY=0.5;exitDx=0;exitDy=0;" edge="1" parent="1" source="rtZ6Cj8IN6wZWN9fhZ0d-34">
          <mxGeometry width="50" height="50" relative="1" as="geometry">
            <mxPoint x="400" y="1199.24" as="sourcePoint" />
            <mxPoint x="281" y="978.74" as="targetPoint" />
          </mxGeometry>
        </mxCell>
        <mxCell id="rtZ6Cj8IN6wZWN9fhZ0d-55" value="" style="endArrow=classic;html=1;rounded=0;exitX=1;exitY=0.5;exitDx=0;exitDy=0;" edge="1" parent="1" source="rtZ6Cj8IN6wZWN9fhZ0d-41">
          <mxGeometry width="50" height="50" relative="1" as="geometry">
            <mxPoint x="400" y="1199.24" as="sourcePoint" />
            <mxPoint x="520" y="1005.74" as="targetPoint" />
          </mxGeometry>
        </mxCell>
        <mxCell id="rtZ6Cj8IN6wZWN9fhZ0d-56" value="" style="endArrow=classic;html=1;rounded=0;edgeStyle=orthogonalEdgeStyle;exitX=0.5;exitY=1;exitDx=0;exitDy=0;fillColor=#d5e8d4;gradientColor=#97d077;strokeColor=#82b366;" edge="1" parent="1" source="rtZ6Cj8IN6wZWN9fhZ0d-49">
          <mxGeometry width="50" height="50" relative="1" as="geometry">
            <mxPoint x="400" y="1199.24" as="sourcePoint" />
            <mxPoint x="221" y="1176" as="targetPoint" />
            <Array as="points">
              <mxPoint x="613" y="1176" />
            </Array>
          </mxGeometry>
        </mxCell>
        <mxCell id="rtZ6Cj8IN6wZWN9fhZ0d-57" value="" style="endArrow=classic;html=1;rounded=0;fillColor=#e6d0de;gradientColor=#d5739d;strokeColor=#996185;exitX=0.5;exitY=0;exitDx=0;exitDy=0;" edge="1" parent="1" source="rtZ6Cj8IN6wZWN9fhZ0d-48">
          <mxGeometry width="50" height="50" relative="1" as="geometry">
            <mxPoint x="739" y="1044.24" as="sourcePoint" />
            <mxPoint x="742" y="1009.24" as="targetPoint" />
          </mxGeometry>
        </mxCell>
        <mxCell id="rtZ6Cj8IN6wZWN9fhZ0d-58" value="" style="endArrow=classic;html=1;rounded=0;exitX=0.75;exitY=0;exitDx=0;exitDy=0;fillColor=#e6d0de;gradientColor=#d5739d;strokeColor=#996185;entryX=0.78;entryY=1.019;entryDx=0;entryDy=0;entryPerimeter=0;" edge="1" parent="1" source="rtZ6Cj8IN6wZWN9fhZ0d-134" target="rtZ6Cj8IN6wZWN9fhZ0d-61">
          <mxGeometry width="50" height="50" relative="1" as="geometry">
            <mxPoint x="871.25" y="981.68" as="sourcePoint" />
            <mxPoint x="1050.25" y="895.18" as="targetPoint" />
          </mxGeometry>
        </mxCell>
        <mxCell id="rtZ6Cj8IN6wZWN9fhZ0d-59" value="" style="endArrow=classic;html=1;rounded=0;entryX=0.5;entryY=0;entryDx=0;entryDy=0;fillColor=#d5e8d4;gradientColor=#97d077;strokeColor=#82b366;exitX=0.25;exitY=1;exitDx=0;exitDy=0;" edge="1" parent="1" source="rtZ6Cj8IN6wZWN9fhZ0d-47" target="rtZ6Cj8IN6wZWN9fhZ0d-49">
          <mxGeometry width="50" height="50" relative="1" as="geometry">
            <mxPoint x="610" y="1009.24" as="sourcePoint" />
            <mxPoint x="720" y="1013.74" as="targetPoint" />
          </mxGeometry>
        </mxCell>
        <mxCell id="rtZ6Cj8IN6wZWN9fhZ0d-60" value="" style="endArrow=classic;html=1;rounded=0;fillColor=#d5e8d4;gradientColor=#97d077;strokeColor=#82b366;entryX=0.344;entryY=-0.025;entryDx=0;entryDy=0;entryPerimeter=0;" edge="1" parent="1" target="rtZ6Cj8IN6wZWN9fhZ0d-134">
          <mxGeometry width="50" height="50" relative="1" as="geometry">
            <mxPoint x="989.25" y="895.18" as="sourcePoint" />
            <mxPoint x="671.25" y="965.18" as="targetPoint" />
          </mxGeometry>
        </mxCell>
        <mxCell id="rtZ6Cj8IN6wZWN9fhZ0d-61" value="" style="shape=image;html=1;verticalAlign=top;verticalLabelPosition=bottom;labelBackgroundColor=#ffffff;imageAspect=0;aspect=fixed;image=https://cdn0.iconfinder.com/data/icons/devices-42/512/Macbook-128.png;clipPath=inset(24.22% 10.94% 24.22% 10.94%);" vertex="1" parent="1">
          <mxGeometry x="960" y="800" width="142.42" height="94" as="geometry" />
        </mxCell>
        <mxCell id="rtZ6Cj8IN6wZWN9fhZ0d-62" value="&lt;font style=&quot;font-size: 22px;&quot;&gt;&lt;b&gt;UI&lt;/b&gt;&lt;/font&gt;" style="text;html=1;align=center;verticalAlign=middle;whiteSpace=wrap;rounded=0;fillColor=#eeeeee;strokeColor=#36393d;" vertex="1" parent="1">
          <mxGeometry x="974.5" y="808" width="110.5" height="71" as="geometry" />
        </mxCell>
        <mxCell id="rtZ6Cj8IN6wZWN9fhZ0d-63" value="Message" style="text;html=1;strokeColor=none;fillColor=none;align=center;verticalAlign=middle;whiteSpace=wrap;rounded=0;" vertex="1" parent="1">
          <mxGeometry x="341.68" y="1154.74" width="60" height="22.75" as="geometry" />
        </mxCell>
        <mxCell id="rtZ6Cj8IN6wZWN9fhZ0d-64" value="Message" style="text;html=1;strokeColor=none;fillColor=none;align=center;verticalAlign=middle;whiteSpace=wrap;rounded=0;" vertex="1" parent="1">
          <mxGeometry x="640" y="1171.99" width="60" height="24.5" as="geometry" />
        </mxCell>
        <mxCell id="rtZ6Cj8IN6wZWN9fhZ0d-65" value="&lt;b&gt;Client 1&lt;/b&gt;" style="points=[[0.35,0,0],[0.98,0.51,0],[1,0.71,0],[0.67,1,0],[0,0.795,0],[0,0.65,0]];verticalLabelPosition=bottom;sketch=0;html=1;verticalAlign=top;aspect=fixed;align=center;pointerEvents=1;shape=mxgraph.cisco19.user;fillColor=#005073;strokeColor=none;" vertex="1" parent="1">
          <mxGeometry x="400.38" y="802.77" width="80.87" height="80.87" as="geometry" />
        </mxCell>
        <mxCell id="rtZ6Cj8IN6wZWN9fhZ0d-66" value="" style="endArrow=classic;html=1;rounded=0;edgeStyle=orthogonalEdgeStyle;exitX=0.5;exitY=1;exitDx=0;exitDy=0;fillColor=#d5e8d4;gradientColor=#97d077;strokeColor=#82b366;" edge="1" parent="1" source="rtZ6Cj8IN6wZWN9fhZ0d-41" target="rtZ6Cj8IN6wZWN9fhZ0d-35">
          <mxGeometry width="50" height="50" relative="1" as="geometry">
            <mxPoint x="470" y="1174.74" as="sourcePoint" />
            <mxPoint x="140" y="1064.74" as="targetPoint" />
            <Array as="points">
              <mxPoint x="380" y="1064.74" />
            </Array>
          </mxGeometry>
        </mxCell>
        <mxCell id="rtZ6Cj8IN6wZWN9fhZ0d-68" value="" style="endArrow=classic;html=1;rounded=0;entryX=0.75;entryY=0;entryDx=0;entryDy=0;fillColor=#d5e8d4;gradientColor=#97d077;strokeColor=#82b366;" edge="1" parent="1" target="rtZ6Cj8IN6wZWN9fhZ0d-41">
          <mxGeometry width="50" height="50" relative="1" as="geometry">
            <mxPoint x="410.25" y="881.39" as="sourcePoint" />
            <mxPoint x="431.25" y="851.39" as="targetPoint" />
          </mxGeometry>
        </mxCell>
        <mxCell id="rtZ6Cj8IN6wZWN9fhZ0d-70" value="&lt;i&gt;System architecture figure&lt;/i&gt;" style="text;html=1;strokeColor=none;fillColor=none;align=center;verticalAlign=middle;whiteSpace=wrap;rounded=0;" vertex="1" parent="1">
          <mxGeometry x="497.5" y="680" width="165" height="30" as="geometry" />
        </mxCell>
        <mxCell id="rtZ6Cj8IN6wZWN9fhZ0d-71" value="&lt;i&gt;Chat room architecture figure&lt;/i&gt;" style="text;html=1;strokeColor=none;fillColor=none;align=center;verticalAlign=middle;whiteSpace=wrap;rounded=0;" vertex="1" parent="1">
          <mxGeometry x="590" y="1270" width="180" height="30" as="geometry" />
        </mxCell>
        <mxCell id="rtZ6Cj8IN6wZWN9fhZ0d-73" value="&lt;b&gt;Exchange&lt;/b&gt;" style="shape=cylinder3;whiteSpace=wrap;html=1;boundedLbl=1;backgroundOutline=1;size=15;fillColor=#fad9d5;strokeColor=#ae4132;" vertex="1" parent="1">
          <mxGeometry x="285.43" y="1560" width="160" height="80" as="geometry" />
        </mxCell>
        <mxCell id="rtZ6Cj8IN6wZWN9fhZ0d-74" value="" style="shape=cylinder3;whiteSpace=wrap;html=1;boundedLbl=1;backgroundOutline=1;size=15;rotation=-90;fillColor=#FAF2E9;strokeColor=#b46504;gradientColor=#FFB66E;direction=east;" vertex="1" parent="1">
          <mxGeometry x="666.68" y="1340" width="80" height="280" as="geometry" />
        </mxCell>
        <mxCell id="rtZ6Cj8IN6wZWN9fhZ0d-82" value="" style="verticalLabelPosition=bottom;shadow=0;dashed=0;align=center;html=1;verticalAlign=top;strokeWidth=1;shape=mxgraph.mockup.misc.mail2;strokeColor=#999999;fillOpacity=40;" vertex="1" parent="1">
          <mxGeometry x="756.68" y="1462.5" width="50" height="35" as="geometry" />
        </mxCell>
        <mxCell id="rtZ6Cj8IN6wZWN9fhZ0d-83" value="" style="verticalLabelPosition=bottom;shadow=0;dashed=0;align=center;html=1;verticalAlign=top;strokeWidth=1;shape=mxgraph.mockup.misc.mail2;strokeColor=#999999;fillOpacity=80;" vertex="1" parent="1">
          <mxGeometry x="681.68" y="1462.5" width="50" height="35" as="geometry" />
        </mxCell>
        <mxCell id="rtZ6Cj8IN6wZWN9fhZ0d-85" value="" style="verticalLabelPosition=bottom;shadow=0;dashed=0;align=center;html=1;verticalAlign=top;strokeWidth=1;shape=mxgraph.mockup.misc.mail2;strokeColor=#999999;" vertex="1" parent="1">
          <mxGeometry x="611.18" y="1462.5" width="50" height="35" as="geometry" />
        </mxCell>
        <mxCell id="rtZ6Cj8IN6wZWN9fhZ0d-86" value="" style="shape=cylinder3;whiteSpace=wrap;html=1;boundedLbl=1;backgroundOutline=1;size=15;rotation=-90;fillColor=#FAF2E9;strokeColor=#b46504;gradientColor=#FFB66E;direction=east;" vertex="1" parent="1">
          <mxGeometry x="666.68" y="1460" width="80" height="280" as="geometry" />
        </mxCell>
        <mxCell id="rtZ6Cj8IN6wZWN9fhZ0d-87" value="" style="verticalLabelPosition=bottom;shadow=0;dashed=0;align=center;html=1;verticalAlign=top;strokeWidth=1;shape=mxgraph.mockup.misc.mail2;strokeColor=#999999;fillOpacity=40;" vertex="1" parent="1">
          <mxGeometry x="756.68" y="1582.5" width="50" height="35" as="geometry" />
        </mxCell>
        <mxCell id="rtZ6Cj8IN6wZWN9fhZ0d-88" value="" style="verticalLabelPosition=bottom;shadow=0;dashed=0;align=center;html=1;verticalAlign=top;strokeWidth=1;shape=mxgraph.mockup.misc.mail2;strokeColor=#999999;fillOpacity=80;" vertex="1" parent="1">
          <mxGeometry x="681.68" y="1582.5" width="50" height="35" as="geometry" />
        </mxCell>
        <mxCell id="rtZ6Cj8IN6wZWN9fhZ0d-89" value="" style="verticalLabelPosition=bottom;shadow=0;dashed=0;align=center;html=1;verticalAlign=top;strokeWidth=1;shape=mxgraph.mockup.misc.mail2;strokeColor=#999999;" vertex="1" parent="1">
          <mxGeometry x="611.18" y="1582.5" width="50" height="35" as="geometry" />
        </mxCell>
        <mxCell id="rtZ6Cj8IN6wZWN9fhZ0d-90" value="" style="shape=cylinder3;whiteSpace=wrap;html=1;boundedLbl=1;backgroundOutline=1;size=15;rotation=-90;fillColor=#FAF2E9;strokeColor=#b46504;gradientColor=#FFB66E;direction=east;" vertex="1" parent="1">
          <mxGeometry x="666.68" y="1580" width="80" height="280" as="geometry" />
        </mxCell>
        <mxCell id="rtZ6Cj8IN6wZWN9fhZ0d-91" value="" style="verticalLabelPosition=bottom;shadow=0;dashed=0;align=center;html=1;verticalAlign=top;strokeWidth=1;shape=mxgraph.mockup.misc.mail2;strokeColor=#999999;fillOpacity=40;" vertex="1" parent="1">
          <mxGeometry x="756.68" y="1702.5" width="50" height="35" as="geometry" />
        </mxCell>
        <mxCell id="rtZ6Cj8IN6wZWN9fhZ0d-92" value="" style="verticalLabelPosition=bottom;shadow=0;dashed=0;align=center;html=1;verticalAlign=top;strokeWidth=1;shape=mxgraph.mockup.misc.mail2;strokeColor=#999999;fillOpacity=80;" vertex="1" parent="1">
          <mxGeometry x="681.68" y="1702.5" width="50" height="35" as="geometry" />
        </mxCell>
        <mxCell id="rtZ6Cj8IN6wZWN9fhZ0d-93" value="" style="verticalLabelPosition=bottom;shadow=0;dashed=0;align=center;html=1;verticalAlign=top;strokeWidth=1;shape=mxgraph.mockup.misc.mail2;strokeColor=#999999;" vertex="1" parent="1">
          <mxGeometry x="611.18" y="1702.5" width="50" height="35" as="geometry" />
        </mxCell>
        <mxCell id="rtZ6Cj8IN6wZWN9fhZ0d-95" value="&lt;b&gt;RabbitMQ&lt;/b&gt;" style="text;html=1;strokeColor=none;fillColor=none;align=center;verticalAlign=middle;whiteSpace=wrap;rounded=0;" vertex="1" parent="1">
          <mxGeometry x="534.18" y="1400" width="60" height="20" as="geometry" />
        </mxCell>
        <mxCell id="rtZ6Cj8IN6wZWN9fhZ0d-96" value="&lt;b&gt;Consumer&lt;/b&gt;" style="rounded=1;whiteSpace=wrap;html=1;fillColor=#d5e8d4;strokeColor=#82b366;gradientColor=#97d077;" vertex="1" parent="1">
          <mxGeometry x="924.18" y="1437.5" width="120" height="82.5" as="geometry" />
        </mxCell>
        <mxCell id="rtZ6Cj8IN6wZWN9fhZ0d-97" value="&lt;b&gt;Consumer&lt;/b&gt;" style="rounded=1;whiteSpace=wrap;html=1;fillColor=#d5e8d4;gradientColor=#97d077;strokeColor=#82b366;" vertex="1" parent="1">
          <mxGeometry x="924.18" y="1560" width="120" height="80" as="geometry" />
        </mxCell>
        <mxCell id="rtZ6Cj8IN6wZWN9fhZ0d-98" value="&lt;b&gt;Consumer&lt;/b&gt;" style="rounded=1;whiteSpace=wrap;html=1;fillColor=#d5e8d4;gradientColor=#97d077;strokeColor=#82b366;" vertex="1" parent="1">
          <mxGeometry x="924.18" y="1680" width="120" height="80" as="geometry" />
        </mxCell>
        <mxCell id="rtZ6Cj8IN6wZWN9fhZ0d-99" value="" style="endArrow=classic;html=1;rounded=0;entryX=0.5;entryY=0;entryDx=0;entryDy=0;entryPerimeter=0;exitX=1;exitY=0;exitDx=0;exitDy=27.5;exitPerimeter=0;" edge="1" parent="1" source="rtZ6Cj8IN6wZWN9fhZ0d-73" target="rtZ6Cj8IN6wZWN9fhZ0d-74">
          <mxGeometry width="50" height="50" relative="1" as="geometry">
            <mxPoint x="716.68" y="1660" as="sourcePoint" />
            <mxPoint x="766.68" y="1610" as="targetPoint" />
          </mxGeometry>
        </mxCell>
        <mxCell id="rtZ6Cj8IN6wZWN9fhZ0d-102" value="" style="endArrow=classic;html=1;rounded=0;exitX=0.5;exitY=1;exitDx=0;exitDy=0;exitPerimeter=0;" edge="1" parent="1" source="rtZ6Cj8IN6wZWN9fhZ0d-74">
          <mxGeometry width="50" height="50" relative="1" as="geometry">
            <mxPoint x="876.68" y="1530" as="sourcePoint" />
            <mxPoint x="926.68" y="1480" as="targetPoint" />
          </mxGeometry>
        </mxCell>
        <mxCell id="rtZ6Cj8IN6wZWN9fhZ0d-103" value="" style="endArrow=classic;html=1;rounded=0;exitX=0.5;exitY=1;exitDx=0;exitDy=0;exitPerimeter=0;" edge="1" parent="1" source="rtZ6Cj8IN6wZWN9fhZ0d-86">
          <mxGeometry width="50" height="50" relative="1" as="geometry">
            <mxPoint x="876.68" y="1650" as="sourcePoint" />
            <mxPoint x="926.68" y="1600" as="targetPoint" />
          </mxGeometry>
        </mxCell>
        <mxCell id="rtZ6Cj8IN6wZWN9fhZ0d-104" value="" style="endArrow=classic;html=1;rounded=0;exitX=0.5;exitY=1;exitDx=0;exitDy=0;exitPerimeter=0;" edge="1" parent="1" source="rtZ6Cj8IN6wZWN9fhZ0d-90">
          <mxGeometry width="50" height="50" relative="1" as="geometry">
            <mxPoint x="876.68" y="1770" as="sourcePoint" />
            <mxPoint x="926.68" y="1720" as="targetPoint" />
          </mxGeometry>
        </mxCell>
        <mxCell id="rtZ6Cj8IN6wZWN9fhZ0d-105" value="" style="endArrow=classic;html=1;rounded=0;" edge="1" parent="1">
          <mxGeometry width="50" height="50" relative="1" as="geometry">
            <mxPoint x="446.68" y="1600" as="sourcePoint" />
            <mxPoint x="566.68" y="1600" as="targetPoint" />
          </mxGeometry>
        </mxCell>
        <mxCell id="rtZ6Cj8IN6wZWN9fhZ0d-106" value="" style="endArrow=classic;html=1;rounded=0;exitX=1;exitY=0;exitDx=0;exitDy=52.5;exitPerimeter=0;" edge="1" parent="1" source="rtZ6Cj8IN6wZWN9fhZ0d-73">
          <mxGeometry width="50" height="50" relative="1" as="geometry">
            <mxPoint x="516.6800000000001" y="1770" as="sourcePoint" />
            <mxPoint x="566.68" y="1720" as="targetPoint" />
          </mxGeometry>
        </mxCell>
        <mxCell id="rtZ6Cj8IN6wZWN9fhZ0d-107" value="Binding" style="text;html=1;strokeColor=none;fillColor=none;align=center;verticalAlign=middle;whiteSpace=wrap;rounded=0;" vertex="1" parent="1">
          <mxGeometry x="456.68" y="1520" width="50" height="20" as="geometry" />
        </mxCell>
        <mxCell id="rtZ6Cj8IN6wZWN9fhZ0d-108" value="Binding" style="text;html=1;strokeColor=none;fillColor=none;align=center;verticalAlign=middle;whiteSpace=wrap;rounded=0;" vertex="1" parent="1">
          <mxGeometry x="486.68" y="1580" width="60" height="20" as="geometry" />
        </mxCell>
        <mxCell id="rtZ6Cj8IN6wZWN9fhZ0d-109" value="Binding" style="text;html=1;strokeColor=none;fillColor=none;align=center;verticalAlign=middle;whiteSpace=wrap;rounded=0;" vertex="1" parent="1">
          <mxGeometry x="466.68" y="1670" width="50" height="20" as="geometry" />
        </mxCell>
        <mxCell id="rtZ6Cj8IN6wZWN9fhZ0d-111" value="&lt;b&gt;Queue&lt;/b&gt;" style="text;html=1;strokeColor=none;fillColor=none;align=center;verticalAlign=middle;whiteSpace=wrap;rounded=0;" vertex="1" parent="1">
          <mxGeometry x="676.68" y="1417.5" width="60" height="20" as="geometry" />
        </mxCell>
        <mxCell id="rtZ6Cj8IN6wZWN9fhZ0d-112" value="&lt;b&gt;Queue&lt;/b&gt;" style="text;html=1;strokeColor=none;fillColor=none;align=center;verticalAlign=middle;whiteSpace=wrap;rounded=0;" vertex="1" parent="1">
          <mxGeometry x="676.68" y="1540" width="60" height="20" as="geometry" />
        </mxCell>
        <mxCell id="rtZ6Cj8IN6wZWN9fhZ0d-113" value="&lt;b&gt;Queue&lt;/b&gt;" style="text;html=1;strokeColor=none;fillColor=none;align=center;verticalAlign=middle;whiteSpace=wrap;rounded=0;" vertex="1" parent="1">
          <mxGeometry x="676.68" y="1660" width="60" height="20" as="geometry" />
        </mxCell>
        <mxCell id="rtZ6Cj8IN6wZWN9fhZ0d-114" value="Producer" style="rounded=1;whiteSpace=wrap;html=1;fillColor=#ffff88;strokeColor=#36393d;shadow=0;" vertex="1" parent="1">
          <mxGeometry x="85" y="1437.5" width="120" height="60" as="geometry" />
        </mxCell>
        <mxCell id="rtZ6Cj8IN6wZWN9fhZ0d-115" value="" style="endArrow=classic;html=1;rounded=0;exitX=0.5;exitY=1;exitDx=0;exitDy=0;edgeStyle=orthogonalEdgeStyle;entryX=0.003;entryY=0.618;entryDx=0;entryDy=0;entryPerimeter=0;" edge="1" parent="1" source="rtZ6Cj8IN6wZWN9fhZ0d-114" target="rtZ6Cj8IN6wZWN9fhZ0d-73">
          <mxGeometry width="50" height="50" relative="1" as="geometry">
            <mxPoint x="366.68" y="1540" as="sourcePoint" />
            <mxPoint x="276.68" y="1610" as="targetPoint" />
            <Array as="points">
              <mxPoint x="145" y="1609" />
            </Array>
          </mxGeometry>
        </mxCell>
        <mxCell id="rtZ6Cj8IN6wZWN9fhZ0d-116" value="" style="shape=message;html=1;html=1;outlineConnect=0;labelPosition=center;verticalLabelPosition=bottom;align=center;verticalAlign=top;" vertex="1" parent="1">
          <mxGeometry x="130" y="1541.88" width="30" height="22.5" as="geometry" />
        </mxCell>
        <mxCell id="rtZ6Cj8IN6wZWN9fhZ0d-124" value="&lt;font style=&quot;font-size: 10px;&quot;&gt;Message&lt;/font&gt;" style="text;html=1;strokeColor=none;fillColor=none;align=center;verticalAlign=middle;whiteSpace=wrap;rounded=0;" vertex="1" parent="1">
          <mxGeometry x="175" y="1540" width="30" height="24.38" as="geometry" />
        </mxCell>
        <mxCell id="rtZ6Cj8IN6wZWN9fhZ0d-125" value="Notification architecture figure" style="text;html=1;strokeColor=none;fillColor=none;align=center;verticalAlign=middle;whiteSpace=wrap;rounded=0;" vertex="1" parent="1">
          <mxGeometry x="500.22" y="1810" width="170.43" height="30" as="geometry" />
        </mxCell>
        <mxCell id="rtZ6Cj8IN6wZWN9fhZ0d-127" value="" style="image;sketch=0;aspect=fixed;html=1;points=[];align=center;fontSize=12;image=img/lib/mscae/Cache_Redis_Product.svg;" vertex="1" parent="1">
          <mxGeometry x="1017.5" y="1078.19" width="32.5" height="27.3" as="geometry" />
        </mxCell>
        <mxCell id="rtZ6Cj8IN6wZWN9fhZ0d-128" value="" style="endArrow=classic;html=1;rounded=0;exitX=1;exitY=0.5;exitDx=0;exitDy=0;entryX=-0.002;entryY=0.528;entryDx=0;entryDy=0;entryPerimeter=0;" edge="1" parent="1" source="rtZ6Cj8IN6wZWN9fhZ0d-47" target="rtZ6Cj8IN6wZWN9fhZ0d-134">
          <mxGeometry width="50" height="50" relative="1" as="geometry">
            <mxPoint x="900" y="984.74" as="sourcePoint" />
            <mxPoint x="920" y="992.74" as="targetPoint" />
          </mxGeometry>
        </mxCell>
        <mxCell id="rtZ6Cj8IN6wZWN9fhZ0d-129" value="&lt;font style=&quot;font-size: 10px;&quot;&gt;Save message&lt;/font&gt;" style="text;html=1;strokeColor=none;fillColor=none;align=center;verticalAlign=middle;whiteSpace=wrap;rounded=0;" vertex="1" parent="1">
          <mxGeometry x="870.0000000000001" y="1040.17" width="90" height="9.1" as="geometry" />
        </mxCell>
        <mxCell id="rtZ6Cj8IN6wZWN9fhZ0d-134" value="&lt;b&gt;Redis client&lt;/b&gt;" style="rounded=1;whiteSpace=wrap;html=1;fillColor=#d5e8d4;gradientColor=#97d077;strokeColor=#82b366;" vertex="1" parent="1">
          <mxGeometry x="920" y="961.2399999999999" width="200" height="50" as="geometry" />
        </mxCell>
        <mxCell id="rtZ6Cj8IN6wZWN9fhZ0d-140" value="" style="endArrow=classic;html=1;rounded=0;exitX=0.171;exitY=1.002;exitDx=0;exitDy=0;exitPerimeter=0;" edge="1" parent="1" source="rtZ6Cj8IN6wZWN9fhZ0d-134">
          <mxGeometry width="50" height="50" relative="1" as="geometry">
            <mxPoint x="1080" y="1025.1799999999998" as="sourcePoint" />
            <mxPoint x="954" y="1065.74" as="targetPoint" />
          </mxGeometry>
        </mxCell>
        <mxCell id="rtZ6Cj8IN6wZWN9fhZ0d-141" value="" style="rounded=1;whiteSpace=wrap;html=1;fillColor=#fad9d5;strokeColor=#ae4132;rotation=0;" vertex="1" parent="1">
          <mxGeometry x="914.48" y="1076.99" width="85.5" height="60" as="geometry" />
        </mxCell>
        <mxCell id="rtZ6Cj8IN6wZWN9fhZ0d-142" value="" style="rounded=1;whiteSpace=wrap;html=1;fillColor=#fad9d5;strokeColor=#ae4132;rotation=0;" vertex="1" parent="1">
          <mxGeometry x="1069.98" y="1076.99" width="80" height="60" as="geometry" />
        </mxCell>
        <mxCell id="rtZ6Cj8IN6wZWN9fhZ0d-143" value="&lt;b&gt;Hash&lt;/b&gt;" style="text;html=1;strokeColor=none;fillColor=none;align=center;verticalAlign=middle;whiteSpace=wrap;rounded=0;" vertex="1" parent="1">
          <mxGeometry x="927.73" y="1081.3899999999999" width="60" height="15.7" as="geometry" />
        </mxCell>
        <mxCell id="rtZ6Cj8IN6wZWN9fhZ0d-144" value="&lt;b&gt;SortedSet&lt;/b&gt;" style="text;html=1;strokeColor=none;fillColor=none;align=center;verticalAlign=middle;whiteSpace=wrap;rounded=0;" vertex="1" parent="1">
          <mxGeometry x="1078.23" y="1078.19" width="60" height="20" as="geometry" />
        </mxCell>
        <mxCell id="rtZ6Cj8IN6wZWN9fhZ0d-145" value="ContactName" style="text;html=1;strokeColor=none;fillColor=none;align=center;verticalAlign=middle;whiteSpace=wrap;rounded=0;" vertex="1" parent="1">
          <mxGeometry x="927.73" y="1116.99" width="60" height="20" as="geometry" />
        </mxCell>
        <mxCell id="rtZ6Cj8IN6wZWN9fhZ0d-146" value="&lt;font style=&quot;font-size: 12px;&quot;&gt;SortedSet&lt;/font&gt;" style="text;html=1;strokeColor=none;fillColor=none;align=center;verticalAlign=middle;whiteSpace=wrap;rounded=0;" vertex="1" parent="1">
          <mxGeometry x="1078.23" y="1112.49" width="60" height="30" as="geometry" />
        </mxCell>
        <mxCell id="rtZ6Cj8IN6wZWN9fhZ0d-155" value="" style="endArrow=classic;html=1;rounded=0;entryX=0.827;entryY=1.01;entryDx=0;entryDy=0;entryPerimeter=0;" edge="1" parent="1" target="rtZ6Cj8IN6wZWN9fhZ0d-134">
          <mxGeometry width="50" height="50" relative="1" as="geometry">
            <mxPoint x="1086" y="1065.74" as="sourcePoint" />
            <mxPoint x="1020" y="994.77" as="targetPoint" />
          </mxGeometry>
        </mxCell>
        <mxCell id="rtZ6Cj8IN6wZWN9fhZ0d-156" value="&lt;font style=&quot;font-size: 10px;&quot;&gt;Read message&lt;/font&gt;" style="text;html=1;strokeColor=none;fillColor=none;align=center;verticalAlign=middle;whiteSpace=wrap;rounded=0;" vertex="1" parent="1">
          <mxGeometry x="1088" y="1040.17" width="72" height="9.9" as="geometry" />
        </mxCell>
        <mxCell id="rtZ6Cj8IN6wZWN9fhZ0d-157" value="zset-key: messages" style="shape=table;startSize=30;container=1;collapsible=1;childLayout=tableLayout;fixedRows=1;rowLines=0;fontStyle=1;align=center;resizeLast=1;html=1;whiteSpace=wrap;fillColor=#d0cee2;strokeColor=default;rounded=0;swimlaneLine=0;" vertex="1" parent="1">
          <mxGeometry x="990" y="1196.49" width="210" height="80" as="geometry" />
        </mxCell>
        <mxCell id="rtZ6Cj8IN6wZWN9fhZ0d-161" value="" style="shape=tableRow;horizontal=0;startSize=0;swimlaneHead=0;swimlaneBody=0;fillColor=none;collapsible=0;dropTarget=0;points=[[0,0.5],[1,0.5]];portConstraint=eastwest;top=0;left=0;right=0;bottom=1;html=1;" vertex="1" parent="rtZ6Cj8IN6wZWN9fhZ0d-157">
          <mxGeometry y="30" width="210" height="20" as="geometry" />
        </mxCell>
        <mxCell id="rtZ6Cj8IN6wZWN9fhZ0d-162" value="&lt;span style=&quot;font-weight: normal;&quot;&gt;&lt;font style=&quot;font-size: 10px;&quot;&gt;User01 to User02: &quot;Hello&quot;&lt;/font&gt;&lt;/span&gt;" style="shape=partialRectangle;connectable=0;fillColor=none;top=0;left=0;bottom=0;right=0;fontStyle=1;overflow=hidden;html=1;whiteSpace=wrap;" vertex="1" parent="rtZ6Cj8IN6wZWN9fhZ0d-161">
          <mxGeometry width="140" height="20" as="geometry">
            <mxRectangle width="140" height="20" as="alternateBounds" />
          </mxGeometry>
        </mxCell>
        <mxCell id="rtZ6Cj8IN6wZWN9fhZ0d-163" value="&lt;font style=&quot;font-size: 10px; font-weight: normal;&quot;&gt;Value1: xxx&lt;/font&gt;" style="shape=partialRectangle;connectable=0;fillColor=none;top=0;left=0;bottom=0;right=0;align=left;spacingLeft=6;fontStyle=5;overflow=hidden;html=1;whiteSpace=wrap;" vertex="1" parent="rtZ6Cj8IN6wZWN9fhZ0d-161">
          <mxGeometry x="140" width="70" height="20" as="geometry">
            <mxRectangle width="70" height="20" as="alternateBounds" />
          </mxGeometry>
        </mxCell>
        <mxCell id="rtZ6Cj8IN6wZWN9fhZ0d-173" value="" style="shape=tableRow;horizontal=0;startSize=0;swimlaneHead=0;swimlaneBody=0;fillColor=none;collapsible=0;dropTarget=0;points=[[0,0.5],[1,0.5]];portConstraint=eastwest;top=0;left=0;right=0;bottom=1;html=1;" vertex="1" parent="rtZ6Cj8IN6wZWN9fhZ0d-157">
          <mxGeometry y="50" width="210" height="30" as="geometry" />
        </mxCell>
        <mxCell id="rtZ6Cj8IN6wZWN9fhZ0d-174" value="&lt;font style=&quot;font-size: 10px; font-weight: normal;&quot;&gt;User02 to User01: &quot;Hi there&quot;&lt;/font&gt;" style="shape=partialRectangle;connectable=0;fillColor=none;top=0;left=0;bottom=0;right=0;fontStyle=1;overflow=hidden;html=1;whiteSpace=wrap;" vertex="1" parent="rtZ6Cj8IN6wZWN9fhZ0d-173">
          <mxGeometry width="140" height="30" as="geometry">
            <mxRectangle width="140" height="30" as="alternateBounds" />
          </mxGeometry>
        </mxCell>
        <mxCell id="rtZ6Cj8IN6wZWN9fhZ0d-175" value="&lt;font style=&quot;font-size: 10px; font-weight: normal;&quot;&gt;Value2: xxx&lt;/font&gt;" style="shape=partialRectangle;connectable=0;fillColor=none;top=0;left=0;bottom=0;right=0;align=left;spacingLeft=6;fontStyle=5;overflow=hidden;html=1;whiteSpace=wrap;" vertex="1" parent="rtZ6Cj8IN6wZWN9fhZ0d-173">
          <mxGeometry x="140" width="70" height="30" as="geometry">
            <mxRectangle width="70" height="30" as="alternateBounds" />
          </mxGeometry>
        </mxCell>
        <mxCell id="rtZ6Cj8IN6wZWN9fhZ0d-176" value="hash-key: contacts" style="shape=table;startSize=30;container=1;collapsible=1;childLayout=tableLayout;fixedRows=1;rowLines=0;fontStyle=1;align=center;resizeLast=1;html=1;whiteSpace=wrap;fillColor=#d0cee2;strokeColor=default;rounded=0;swimlaneLine=0;" vertex="1" parent="1">
          <mxGeometry x="790" y="1196.49" width="180" height="70" as="geometry" />
        </mxCell>
        <mxCell id="rtZ6Cj8IN6wZWN9fhZ0d-177" value="" style="shape=tableRow;horizontal=0;startSize=0;swimlaneHead=0;swimlaneBody=0;fillColor=none;collapsible=0;dropTarget=0;points=[[0,0.5],[1,0.5]];portConstraint=eastwest;top=0;left=0;right=0;bottom=1;html=1;" vertex="1" parent="rtZ6Cj8IN6wZWN9fhZ0d-176">
          <mxGeometry y="30" width="180" height="20" as="geometry" />
        </mxCell>
        <mxCell id="rtZ6Cj8IN6wZWN9fhZ0d-178" value="&lt;font style=&quot;font-size: 10px; font-weight: normal;&quot;&gt;sub-key1: User01&lt;/font&gt;" style="shape=partialRectangle;connectable=0;fillColor=none;top=0;left=0;bottom=0;right=0;fontStyle=1;overflow=hidden;html=1;whiteSpace=wrap;" vertex="1" parent="rtZ6Cj8IN6wZWN9fhZ0d-177">
          <mxGeometry width="110" height="20" as="geometry">
            <mxRectangle width="110" height="20" as="alternateBounds" />
          </mxGeometry>
        </mxCell>
        <mxCell id="rtZ6Cj8IN6wZWN9fhZ0d-179" value="&lt;font style=&quot;font-size: 10px; font-weight: normal;&quot;&gt;Value1: xxx&lt;/font&gt;" style="shape=partialRectangle;connectable=0;fillColor=none;top=0;left=0;bottom=0;right=0;align=left;spacingLeft=6;fontStyle=5;overflow=hidden;html=1;whiteSpace=wrap;" vertex="1" parent="rtZ6Cj8IN6wZWN9fhZ0d-177">
          <mxGeometry x="110" width="70" height="20" as="geometry">
            <mxRectangle width="70" height="20" as="alternateBounds" />
          </mxGeometry>
        </mxCell>
        <mxCell id="rtZ6Cj8IN6wZWN9fhZ0d-180" value="" style="shape=tableRow;horizontal=0;startSize=0;swimlaneHead=0;swimlaneBody=0;fillColor=none;collapsible=0;dropTarget=0;points=[[0,0.5],[1,0.5]];portConstraint=eastwest;top=0;left=0;right=0;bottom=1;html=1;" vertex="1" parent="rtZ6Cj8IN6wZWN9fhZ0d-176">
          <mxGeometry y="50" width="180" height="20" as="geometry" />
        </mxCell>
        <mxCell id="rtZ6Cj8IN6wZWN9fhZ0d-181" value="&lt;font style=&quot;font-size: 10px; font-weight: normal;&quot;&gt;sub-key2: User02&lt;/font&gt;" style="shape=partialRectangle;connectable=0;fillColor=none;top=0;left=0;bottom=0;right=0;fontStyle=1;overflow=hidden;html=1;whiteSpace=wrap;" vertex="1" parent="rtZ6Cj8IN6wZWN9fhZ0d-180">
          <mxGeometry width="110" height="20" as="geometry">
            <mxRectangle width="110" height="20" as="alternateBounds" />
          </mxGeometry>
        </mxCell>
        <mxCell id="rtZ6Cj8IN6wZWN9fhZ0d-182" value="&lt;span style=&quot;font-weight: normal;&quot;&gt;&lt;font style=&quot;font-size: 10px;&quot;&gt;Value2: xxx&lt;/font&gt;&lt;/span&gt;" style="shape=partialRectangle;connectable=0;fillColor=none;top=0;left=0;bottom=0;right=0;align=left;spacingLeft=6;fontStyle=5;overflow=hidden;html=1;whiteSpace=wrap;" vertex="1" parent="rtZ6Cj8IN6wZWN9fhZ0d-180">
          <mxGeometry x="110" width="70" height="20" as="geometry">
            <mxRectangle width="70" height="20" as="alternateBounds" />
          </mxGeometry>
        </mxCell>
        <mxCell id="rtZ6Cj8IN6wZWN9fhZ0d-183" value="" style="endArrow=none;dashed=1;html=1;rounded=0;exitX=0.5;exitY=0;exitDx=0;exitDy=0;edgeStyle=orthogonalEdgeStyle;curved=1;entryX=0.5;entryY=1;entryDx=0;entryDy=0;" edge="1" parent="1" source="rtZ6Cj8IN6wZWN9fhZ0d-176" target="rtZ6Cj8IN6wZWN9fhZ0d-145">
          <mxGeometry width="50" height="50" relative="1" as="geometry">
            <mxPoint x="850" y="1220" as="sourcePoint" />
            <mxPoint x="900" y="1170" as="targetPoint" />
            <Array as="points">
              <mxPoint x="880" y="1170" />
              <mxPoint x="958" y="1170" />
            </Array>
          </mxGeometry>
        </mxCell>
        <mxCell id="rtZ6Cj8IN6wZWN9fhZ0d-185" value="" style="endArrow=none;dashed=1;html=1;rounded=0;exitX=0.402;exitY=0.001;exitDx=0;exitDy=0;edgeStyle=orthogonalEdgeStyle;curved=1;entryX=0.5;entryY=1;entryDx=0;entryDy=0;exitPerimeter=0;" edge="1" parent="1" source="rtZ6Cj8IN6wZWN9fhZ0d-157">
          <mxGeometry width="50" height="50" relative="1" as="geometry">
            <mxPoint x="1020" y="1195.62" as="sourcePoint" />
            <mxPoint x="1108" y="1136.62" as="targetPoint" />
            <Array as="points">
              <mxPoint x="1068" y="1170" />
              <mxPoint x="1108" y="1170" />
            </Array>
          </mxGeometry>
        </mxCell>
      </root>
    </mxGraphModel>
  </diagram>
</mxfile>
